<svg width="544.2666931152344" height="128.28693213066342" viewBox="0 0 369.9130434782609 87.19072855868369" class="looka-1j8o68f"><defs id="SvgjsDefs2320"></defs><g id="SvgjsG2321" featurekey="PG4fjM-0" transform="matrix(1.639416467485135,0,0,1.639416467485135,-15.720365657428422,-9.80698832038343)" fill="#2563eb"><g xmlns="http://www.w3.org/2000/svg"><path fill="#2563eb" d="M38.902,15.585c-1.664,0-3.012,1.349-3.012,3.012   c0,1.663,1.348,3.012,3.012,3.012c1.662,0,3.012-1.349,3.012-3.012C41.914,16.934,40.564,15.585,38.902,15.585z M27.021,15.585   c-1.665,0-3.012,1.349-3.012,3.012c0,1.663,1.348,3.012,3.012,3.012c1.663,0,3.012-1.349,3.012-3.012   C30.033,16.934,28.684,15.585,27.021,15.585z M21.081,42.271c0,1.664,1.349,3.012,3.012,3.012H41.83   c1.662,0,3.012-1.348,3.012-3.012v-9.184H21.081V42.271z M14.632,14.788c-0.587-0.591-0.88-1.363-0.88-2.131   c0-0.771,0.293-1.544,0.88-2.131c0.591-0.587,1.36-0.88,2.131-0.88c0.772,0,1.544,0.293,2.131,0.88l-0.704,0.52   c4.077-3.17,9.202-5.064,14.77-5.064c5.568,0,10.688,1.893,14.77,5.064l-0.701-0.518c0.588-0.588,1.357-0.881,2.131-0.881   c0.77,0,1.543,0.293,2.129,0.881c0.586,0.591,0.879,1.363,0.879,2.131c0,0.772-0.291,1.544-0.879,2.131l0.703,0.518   c10.184,10.184-7.15,14.77-7.15,14.77H21.081c-0.5,0-18.045-3.875-7.15-14.77L14.632,14.788z"></path></g><path xmlns="http://www.w3.org/2000/svg" fill="#2563eb" d="M16.917,35.35c0,2.023-1.64,3.664-3.664,3.664l0,0c-2.024,0-3.664-1.641-3.664-3.664l0,0  c0-2.023,1.64-3.664,3.664-3.664l0,0C15.276,31.686,16.917,33.326,16.917,35.35L16.917,35.35z"></path><path xmlns="http://www.w3.org/2000/svg" fill="#2563eb" d="M56,36.8c0,2.022-1.641,3.665-3.664,3.665l0,0c-2.023,0-3.664-1.643-3.664-3.665l0,0  c0-2.022,1.641-3.664,3.664-3.664l0,0C54.359,33.136,56,34.777,56,36.8L56,36.8z"></path><path xmlns="http://www.w3.org/2000/svg" fill="#2563eb" d="M39.512,59.166c-2.023,0-3.664-1.641-3.664-3.664l0,0c0-2.023,1.641-3.664,3.664-3.664l0,0  c2.023,0,3.664,1.641,3.664,3.664l0,0C43.176,57.525,41.535,59.166,39.512,59.166L39.512,59.166z"></path><path xmlns="http://www.w3.org/2000/svg" fill="#2563eb" d="M26.077,59.166c-2.024,0-3.664-1.641-3.664-3.664l0,0c0-2.023,1.64-3.664,3.664-3.664l0,0  c2.024,0,3.664,1.641,3.664,3.664l0,0C29.741,57.525,28.101,59.166,26.077,59.166L26.077,59.166z"></path></g><g id="SvgjsG2322" featurekey="jxYttZ-0" transform="matrix(2.925796387143517,0,0,2.925796387143517,92.48904140565807,7.371018064282415)" fill="#2563eb"><path d="M10.34 14.3 l0 5.7 l-2.06 0 l0 -5.5 c0 -2 -0.62 -2.88 -2.32 -2.88 c-1.92 0 -2.7 1.34 -2.7 3.08 l0 5.3 l-2.06 0 l0 -9.88 l2.06 0 l0 1.6 c0.28 -0.88 1.52 -1.68 2.7 -1.76 c2.68 -0.2 4.38 1.1 4.38 4.34 z M17.3 9.92 c2.84 0 3.98 1.72 3.98 3.18 l0 6.9 l-2.06 0 l0 -1.08 c-0.72 0.98 -2 1.26 -2.8 1.26 c-2.26 0 -3.74 -1.32 -3.74 -3.08 c0 -2.46 1.84 -3.34 3.74 -3.34 l2.8 0 l0 -0.66 c0 -0.62 -0.24 -1.48 -1.92 -1.48 c-0.94 0 -1.8 0.5 -2.36 1.28 l-1.42 -1.28 c0.94 -1.04 2.28 -1.7 3.78 -1.7 z M19.22 16.92 l0 -1.48 l-2.52 0 c-1.22 0 -2.08 0.62 -1.94 1.74 c0.12 0.94 0.88 1.32 1.94 1.32 c1.9 0 2.52 -0.9 2.52 -1.58 z M33.1 14.3 l0 5.7 l-2.06 0 l0 -5.5 c0 -2 -0.62 -2.88 -2.32 -2.88 c-1.92 0 -2.7 1.34 -2.7 3.08 l0 5.3 l-2.06 0 l0 -15 l2.06 0 l0 6.72 c0.28 -0.88 1.52 -1.68 2.7 -1.76 c2.68 -0.2 4.38 1.1 4.38 4.34 z M40.44 11.64 c-1.7 0 -3.08 1.42 -3.08 3.44 c0 2 1.38 3.44 3.08 3.44 s3.08 -1.44 3.08 -3.44 c0 -2.02 -1.38 -3.44 -3.08 -3.44 z M40.44 9.94 c2.84 0 5.14 2.2 5.14 5.14 s-2.3 5.12 -5.14 5.12 s-5.14 -2.18 -5.14 -5.12 s2.3 -5.14 5.14 -5.14 z M53.72 10.24 l-0.44 1.62 c-0.14 -0.08 -0.58 -0.22 -0.94 -0.22 c-1.7 0 -2.5 1.62 -2.5 3.62 l0 4.74 l-2.06 0 l0 -9.88 l2.06 0 l0 1.4 c0.24 -0.92 1.3 -1.58 2.48 -1.58 c0.54 0 1.12 0.14 1.4 0.3 z M59.14 9.92 c2.84 0 3.98 1.72 3.98 3.18 l0 6.9 l-2.06 0 l0 -1.08 c-0.72 0.98 -2 1.26 -2.8 1.26 c-2.26 0 -3.74 -1.32 -3.74 -3.08 c0 -2.46 1.84 -3.34 3.74 -3.34 l2.8 0 l0 -0.66 c0 -0.62 -0.24 -1.48 -1.92 -1.48 c-0.94 0 -1.8 0.5 -2.36 1.28 l-1.42 -1.28 c0.94 -1.04 2.28 -1.7 3.78 -1.7 z M61.06 16.92 l0 -1.48 l-2.52 0 c-1.22 0 -2.08 0.62 -1.94 1.74 c0.12 0.94 0.88 1.32 1.94 1.32 c1.9 0 2.52 -0.9 2.52 -1.58 z M70.56 9.94 c2.84 0 4.94 2.2 4.94 5.14 s-2.1 5.12 -4.94 5.12 c-0.96 0 -2.06 -0.36 -2.84 -0.94 l0 0.74 l-2.06 0 l0 -15 l2.06 0 l0 5.9 c0.66 -0.54 1.88 -0.96 2.84 -0.96 z M70.36 18.52 c1.7 0 3.08 -1.44 3.08 -3.44 c0 -2.02 -1.38 -3.44 -3.08 -3.44 c-1.12 0 -2.1 0.5 -2.64 1.56 c-0.28 0.56 -0.44 1.2 -0.44 1.88 s0.16 1.32 0.44 1.86 c0.54 1.06 1.52 1.58 2.64 1.58 z M82.24000000000001 11.64 c-1.7 0 -3.08 1.42 -3.08 3.44 c0 2 1.38 3.44 3.08 3.44 s3.08 -1.44 3.08 -3.44 c0 -2.02 -1.38 -3.44 -3.08 -3.44 z M82.24000000000001 9.94 c2.84 0 5.14 2.2 5.14 5.14 s-2.3 5.12 -5.14 5.12 s-5.14 -2.18 -5.14 -5.12 s2.3 -5.14 5.14 -5.14 z M93.38000000000001 18.36 c0.64 0.26 1.14 0.08 1.44 -0.06 l0 1.6 c-0.26 0.16 -0.64 0.3 -1.18 0.3 c-1.18 0 -2.22 -0.38 -2.86 -1.42 c-0.6 -1 -0.6 -1.54 -0.6 -3.1 l0 -3.88 l-1.2 0 l0 -1.68 l1.2 0 l0 -3.12 l2.06 0 l0 3.12 l2.58 0 l0 1.68 l-2.58 0 l0 3.88 c0 1.64 0.16 2.24 1.14 2.68 z"></path></g></svg>
